<svg width="100%" height="204" viewBox="0 0 1920 204" fill="none" xmlns="http://www.w3.org/2000/svg">
<path d="M1920 0.384521V204H0V148.811C15.12 144.679 39.528 131.537 46.56 126.556C74.856 106.558 82.464 77.7402 96.024 53.4493C109.608 29.1439 148.152 4.50137 187.776 13.0574C217.848 19.5476 229.584 40.9523 243.672 58.4305C278.64 101.841 354.744 133.281 433.944 131.567C489.84 130.351 549.816 114.279 598.752 130.82C653.304 149.25 708.288 224.599 789.288 196.982C855.744 174.318 817.656 108.448 873.456 79.6301C910.656 60.4231 968.28 69.3306 1009.66 85.0215C1051.06 100.712 1088.33 122.586 1136.06 128.593C1212.34 138.174 1282.82 104.712 1345.85 76.7878C1408.87 48.8636 1495.56 24.4556 1560.62 50.5778C1601.52 67.0012 1622.04 100.038 1667.81 110.616C1716.29 121.809 1769.78 102.06 1803.17 77.8719C1826.04 61.302 1843.44 42.2268 1866.29 25.6716C1879.63 15.9875 1896.7 2.72863 1920 0.384521ZM198.048 168.032C213.888 167.373 230.304 161.82 234.96 152.561C240.264 142.042 229.368 131.274 219 122.264C207.336 112.14 195.672 102.002 183.984 91.8781C173.904 83.1169 159.528 73.257 142.392 75.5425C131.136 77.0369 123.312 83.7762 121.272 90.6913C119.232 97.6211 121.872 104.712 124.968 111.481C136.296 136.226 146.52 170.186 198.048 168.032ZM1475.04 78.6045C1470.89 79.4103 1346.21 111.715 1381.32 125.633C1393.42 130.424 1409.71 127.274 1421.98 122.644C1434.26 118.015 1445.83 111.876 1460.11 110.631C1488.77 108.126 1516.37 126.205 1543.7 120.418C1556.47 117.722 1565.54 109.547 1564.92 101.298C1564.03 89.6219 1537.92 76.9051 1520.04 74.8687C1505.02 73.1399 1489.63 75.7769 1475.04 78.6045Z" fill="#F7F7F5"/>
</svg>
