<svg width="1920" height="148" viewBox="0 0 1920 148" fill="none" xmlns="http://www.w3.org/2000/svg">
<path d="M0 147.199V-0.000244141H1920V43.7634C1904.88 46.6426 1880.47 55.8009 1873.44 59.2722C1845.14 73.2086 1837.54 93.2913 1823.98 110.219C1810.39 127.157 1771.85 144.33 1732.22 138.368C1702.15 133.845 1690.42 118.928 1676.33 106.748C1641.36 76.4961 1565.26 54.5858 1486.06 55.7804C1430.16 56.6278 1370.18 67.828 1321.25 56.3011C1266.7 43.4572 1192 -24.0002 1130.71 10.1935C1090.13 32.8349 1102.34 71.8915 1046.54 91.9742C1009.34 105.359 951.72 99.1518 910.344 88.217C868.944 77.2823 831.672 62.0391 783.936 57.853C707.664 51.1758 637.176 74.495 574.152 93.955C511.128 113.415 424.44 130.424 359.376 112.22C318.48 100.775 297.96 77.752 252.192 70.3805C203.712 62.5802 150.216 76.343 116.832 93.1995C93.96 104.747 76.56 118.04 53.712 129.577C40.368 136.326 23.304 145.566 0 147.199Z" fill="white"/>
</svg>
